<svg xmlns="http://www.w3.org/2000/svg" viewBox="0 0 512 512">
  <rect width="512" height="512" rx="108" fill="#FFCD00"/>
  <g transform="translate(256,270)">
    <!-- Handle -->
    <path d="M0-178c-40 0-72 32-72 72v32c0 6 5 10 10 10h16c6 0 10-4 10-10v-32c0-20 16-36 36-36s36 16 36 36v32c0 6 4 10 10 10h16c5 0 10-4 10-10v-32c0-40-32-72-72-72z" fill="#1A1A1A"/>
    <!-- Body -->
    <ellipse cx="0" cy="36" rx="120" ry="118" fill="#1A1A1A"/>
    <!-- Base -->
    <rect x="-72" y="126" width="144" height="26" rx="8" fill="#1A1A1A"/>
    <!-- Diamond mark -->
    <rect x="-16" y="16" width="32" height="32" rx="3" transform="rotate(45 0 32)" fill="#FFCD00"/>
  </g>
</svg>
